
<svg width="32" height="32" viewBox="0 0 32 32" fill="none" xmlns="http://www.w3.org/2000/svg">
  <defs>
    <linearGradient id="grad1" x1="0%" y1="0%" x2="100%" y2="100%">
      <stop offset="0%" style="stop-color:#8B5CF6;stop-opacity:1" />
      <stop offset="100%" style="stop-color:#A855F7;stop-opacity:1" />
    </linearGradient>
  </defs>
  
  <!-- Background circle -->
  <circle cx="16" cy="16" r="15" fill="#0F0F23" stroke="url(#grad1)" stroke-width="2"/>
  
  <!-- Neural network nodes -->
  <circle cx="8" cy="12" r="2" fill="#8B5CF6"/>
  <circle cx="16" cy="8" r="2" fill="#A855F7"/>
  <circle cx="24" cy="12" r="2" fill="#8B5CF6"/>
  <circle cx="8" cy="20" r="2" fill="#A855F7"/>
  <circle cx="16" cy="24" r="2" fill="#8B5CF6"/>
  <circle cx="24" cy="20" r="2" fill="#A855F7"/>
  <circle cx="16" cy="16" r="2.5" fill="#C084FC"/>
  
  <!-- Neural connections -->
  <line x1="8" y1="12" x2="16" y2="8" stroke="#8B5CF6" stroke-width="1" opacity="0.6"/>
  <line x1="16" y1="8" x2="24" y2="12" stroke="#8B5CF6" stroke-width="1" opacity="0.6"/>
  <line x1="8" y1="12" x2="16" y2="16" stroke="#A855F7" stroke-width="1.5" opacity="0.8"/>
  <line x1="16" y1="8" x2="16" y2="16" stroke="#A855F7" stroke-width="1.5" opacity="0.8"/>
  <line x1="24" y1="12" x2="16" y2="16" stroke="#A855F7" stroke-width="1.5" opacity="0.8"/>
  <line x1="8" y1="20" x2="16" y2="16" stroke="#A855F7" stroke-width="1.5" opacity="0.8"/>
  <line x1="16" y1="24" x2="16" y2="16" stroke="#A855F7" stroke-width="1.5" opacity="0.8"/>
  <line x1="24" y1="20" x2="16" y2="16" stroke="#A855F7" stroke-width="1.5" opacity="0.8"/>
  <line x1="8" y1="20" x2="16" y2="24" stroke="#8B5CF6" stroke-width="1" opacity="0.6"/>
  <line x1="16" y1="24" x2="24" y2="20" stroke="#8B5CF6" stroke-width="1" opacity="0.6"/>
</svg>
